<svg width="244" height="270" viewBox="0 0 244 270" fill="none" xmlns="http://www.w3.org/2000/svg">
<path fill-rule="evenodd" clip-rule="evenodd" d="M114.086 46.1481C115.984 47.388 118.521 48.0079 121.697 48.0079C124.873 48.0079 127.391 47.388 129.25 46.1481C131.109 44.8694 132.445 43.087 133.258 40.8009C134.111 38.5149 134.537 35.8413 134.537 32.7802V14.879C134.537 11.7792 134.111 9.125 133.258 6.9164C132.445 4.7078 131.109 3.00292 129.25 1.80175C127.391 0.600584 124.873 0 121.697 0C118.521 0 115.984 0.600584 114.086 1.80175C112.227 2.96417 110.872 4.66905 110.02 6.9164C109.206 9.125 108.799 11.7792 108.799 14.879V32.7221C108.799 35.8219 109.206 38.5342 110.02 40.8591C110.833 43.1452 112.188 44.9082 114.086 46.1481ZM125.648 41.789C124.757 42.4865 123.44 42.8352 121.697 42.8352C119.954 42.8352 118.618 42.4865 117.688 41.789C116.798 41.0528 116.197 40.0454 115.887 38.7667C115.578 37.4493 115.423 35.9188 115.423 34.1751V13.5422C115.423 11.7986 115.578 10.3068 115.887 9.06688C116.197 7.78821 116.798 6.81953 117.688 6.16083C118.618 5.46337 119.954 5.11465 121.697 5.11465C123.44 5.11465 124.757 5.46337 125.648 6.16083C126.539 6.81953 127.139 7.78821 127.449 9.06688C127.759 10.3068 127.914 11.7986 127.914 13.5422V34.1751C127.914 35.9188 127.759 37.4493 127.449 38.7667C127.139 40.0454 126.539 41.0528 125.648 41.789ZM121.248 117.399L211.063 207.575L216.006 202.612L126.191 112.435L216.693 21.5692L211.75 16.606L121.248 107.472L30.7459 16.606L25.8026 21.5692L116.305 112.435L26.4898 202.612L31.4332 207.575L121.248 117.399ZM108.169 225.592L100.5 178.514H105.961L111.016 212.341L117.348 178.689H121.996L128.387 212.515L133.325 178.514H138.67L131.117 225.592H126.353L119.788 190.72L113.165 225.592H108.169ZM9.2041 134.26L19.1969 87.1815H25.5295L35.5803 134.26H29.3639L27.2143 122.403H17.6282L15.3624 134.26H9.2041ZM18.4997 117.695H26.3428L22.3922 96.4809L18.4997 117.695ZM220.504 92.0637V134.26H227.069V92.0637H234.796V87.1815H212.545V92.0637H220.504Z" fill="#1C1919"/>
<path d="M0 269.29L4.14676 249.761H6.77464L10.9455 269.29H8.36584L7.47381 264.371H3.49581L2.55556 269.29H0ZM3.85745 262.419H7.11217L5.47275 253.619L3.85745 262.419Z" fill="#1C1919"/>
<path d="M16.5433 269.29V249.761H20.4731C21.775 249.761 22.8519 249.938 23.7037 250.292C24.5556 250.629 25.1824 251.184 25.5842 251.955C26.0021 252.711 26.2111 253.707 26.2111 254.945C26.2111 255.7 26.1307 256.391 25.97 257.018C25.8092 257.629 25.5521 258.151 25.1985 258.585C24.8449 259.003 24.3788 259.308 23.8002 259.501L26.5727 269.29H23.9448L21.3892 260.128H19.2677V269.29H16.5433ZM19.2677 258.175H20.3043C21.0758 258.175 21.7027 258.079 22.1848 257.886C22.667 257.693 23.0206 257.364 23.2456 256.898C23.4707 256.431 23.5832 255.781 23.5832 254.945C23.5832 253.804 23.3742 252.984 22.9563 252.486C22.5384 251.971 21.7107 251.714 20.4731 251.714H19.2677V258.175Z" fill="#1C1919"/>
<path d="M34.8073 269.29V251.786H31.5043V249.761H40.7381V251.786H37.5316V269.29H34.8073Z" fill="#1C1919"/>
<path d="M46.3817 269.29V249.761H49.0578V269.29H46.3817Z" fill="#1C1919"/>
<path d="M60.4384 269.507C59.3133 269.507 58.373 269.266 57.6176 268.783C56.8783 268.301 56.3157 267.634 55.93 266.782C55.5442 265.93 55.3192 264.942 55.2549 263.817L57.6658 263.166C57.7141 263.857 57.8185 264.524 57.9793 265.167C58.1561 265.81 58.4373 266.34 58.8231 266.758C59.2088 267.16 59.7473 267.361 60.4384 267.361C61.1456 267.361 61.676 267.168 62.0296 266.782C62.3992 266.38 62.5841 265.81 62.5841 265.071C62.5841 264.187 62.3832 263.479 61.9814 262.949C61.5795 262.402 61.0732 261.856 60.4625 261.31L57.1837 258.416C56.5407 257.854 56.0666 257.243 55.7612 256.584C55.4558 255.909 55.3031 255.081 55.3031 254.101C55.3031 252.67 55.713 251.561 56.5327 250.774C57.3524 249.986 58.4695 249.593 59.8839 249.593C60.6554 249.593 61.3304 249.697 61.909 249.906C62.5037 250.099 62.9939 250.404 63.3797 250.822C63.7815 251.24 64.0949 251.77 64.3199 252.413C64.561 253.04 64.7218 253.779 64.8021 254.631L62.4876 255.258C62.4394 254.615 62.343 254.029 62.1983 253.498C62.0537 252.952 61.7965 252.518 61.4268 252.196C61.0732 251.859 60.5589 251.69 59.8839 251.69C59.2088 251.69 58.6784 251.875 58.2927 252.245C57.923 252.598 57.7382 253.129 57.7382 253.836C57.7382 254.43 57.8346 254.921 58.0275 255.306C58.2364 255.692 58.5659 256.086 59.0159 256.488L62.3189 259.381C63.0582 260.024 63.7092 260.795 64.2717 261.695C64.8343 262.579 65.1155 263.632 65.1155 264.854C65.1155 265.818 64.9146 266.654 64.5128 267.361C64.111 268.052 63.5565 268.582 62.8493 268.952C62.1582 269.322 61.3545 269.507 60.4384 269.507Z" fill="#1C1919"/>
<path d="M72.9909 269.29V251.786H69.688V249.761H78.9217V251.786H75.7152V269.29H72.9909Z" fill="#1C1919"/>
<path d="M98.5369 269.507C97.2189 269.507 96.1662 269.249 95.3786 268.735C94.591 268.221 94.0285 267.489 93.691 266.541C93.3534 265.577 93.1847 264.452 93.1847 263.166V255.764C93.1847 254.479 93.3534 253.378 93.691 252.462C94.0446 251.529 94.6071 250.822 95.3786 250.34C96.1662 249.842 97.2189 249.593 98.5369 249.593C99.8549 249.593 100.9 249.842 101.671 250.34C102.443 250.838 102.997 251.545 103.335 252.462C103.688 253.378 103.865 254.479 103.865 255.764V263.19C103.865 264.46 103.688 265.569 103.335 266.517C102.997 267.465 102.443 268.205 101.671 268.735C100.9 269.249 99.8549 269.507 98.5369 269.507ZM98.5369 267.361C99.2602 267.361 99.8066 267.216 100.176 266.927C100.546 266.622 100.795 266.204 100.924 265.673C101.052 265.127 101.117 264.492 101.117 263.769V255.21C101.117 254.487 101.052 253.868 100.924 253.354C100.795 252.823 100.546 252.421 100.176 252.148C99.8066 251.859 99.2602 251.714 98.5369 251.714C97.8136 251.714 97.2591 251.859 96.8734 252.148C96.5037 252.421 96.2546 252.823 96.126 253.354C95.9974 253.868 95.9331 254.487 95.9331 255.21V263.769C95.9331 264.492 95.9974 265.127 96.126 265.673C96.2546 266.204 96.5037 266.622 96.8734 266.927C97.2591 267.216 97.8136 267.361 98.5369 267.361Z" fill="#1C1919"/>
<path d="M110.159 269.29V249.761H117.705V251.714H112.883V258.224H116.62V260.152H112.883V269.29H110.159Z" fill="#1C1919"/>
<path d="M134.464 269.29V251.786H131.161V249.761H140.395V251.786H137.189V269.29H134.464Z" fill="#1C1919"/>
<path d="M145.894 269.29V249.761H148.618V258.199H153.633V249.761H156.357V269.29H153.633V260.152H148.618V269.29H145.894Z" fill="#1C1919"/>
<path d="M163.025 269.29V249.761H170.595V251.786H165.749V258.248H169.679V260.176H165.749V267.337H170.643V269.29H163.025Z" fill="#1C1919"/>
<path d="M188.116 269.29L184.934 249.761H187.2L189.297 263.793L191.925 249.834H193.854L196.506 263.865L198.555 249.761H200.773L197.639 269.29H195.662L192.938 254.824L190.189 269.29H188.116Z" fill="#1C1919"/>
<path d="M206.765 269.29V249.761H214.335V251.786H209.489V258.248H213.419V260.176H209.489V267.337H214.383V269.29H206.765Z" fill="#1C1919"/>
<path d="M220.199 269.29V249.761H227.769V251.786H222.923V258.248H226.853V260.176H222.923V267.337H227.817V269.29H220.199Z" fill="#1C1919"/>
<path d="M233.633 269.29V249.761H236.357V258.971L240.842 249.761H243.373L239.516 258.368L244 269.29H241.348L237.611 260.128L236.357 262.394V269.29H233.633Z" fill="#1C1919"/>
</svg>
