<svg width="54" height="54" viewBox="0 0 54 54" fill="none" xmlns="http://www.w3.org/2000/svg">
<path fill-rule="evenodd" clip-rule="evenodd" d="M25.1056 11.0465C25.5599 11.3433 26.1672 11.4917 26.9274 11.4917C27.6877 11.4917 28.2903 11.3433 28.7353 11.0465C29.1803 10.7404 29.5002 10.3137 29.6949 9.76651C29.8988 9.21929 30.0008 8.57932 30.0008 7.8466V3.56158C30.0008 2.81958 29.8988 2.18425 29.6949 1.65558C29.5002 1.12691 29.1803 0.718808 28.7353 0.431285C28.2903 0.143762 27.6877 0 26.9274 0C26.1672 0 25.5599 0.143762 25.1056 0.431285C24.6606 0.709533 24.3361 1.11763 24.1322 1.65558C23.9375 2.18425 23.8401 2.81958 23.8401 3.56158V7.83269C23.8401 8.57468 23.9375 9.22393 24.1322 9.78043C24.3269 10.3276 24.6514 10.7497 25.1056 11.0465ZM27.8731 10.003C27.6599 10.17 27.3446 10.2534 26.9274 10.2534C26.5102 10.2534 26.1904 10.17 25.9679 10.003C25.7546 9.8268 25.6109 9.58565 25.5368 9.27958C25.4626 8.96423 25.4255 8.59787 25.4255 8.1805V3.24159C25.4255 2.82422 25.4626 2.46713 25.5368 2.17034C25.6109 1.86426 25.7546 1.63239 25.9679 1.47472C26.1904 1.30777 26.5102 1.22429 26.9274 1.22429C27.3446 1.22429 27.6599 1.30777 27.8731 1.47472C28.0863 1.63239 28.23 1.86426 28.3042 2.17034C28.3784 2.46713 28.4155 2.82422 28.4155 3.24159V8.1805C28.4155 8.59787 28.3784 8.96423 28.3042 9.27958C28.23 9.58565 28.0863 9.8268 27.8731 10.003ZM26.8199 28.1017L48.3189 49.6872L49.5022 48.4991L28.0032 26.9137L49.6667 5.16302L48.4834 3.97497L26.8199 25.7256L5.15647 3.97497L3.97318 5.16302L25.6366 26.9137L4.13768 48.4991L5.32097 49.6872L26.8199 28.1017ZM23.6892 54L21.8535 42.731H23.1607L24.3706 50.828L25.8864 42.7727H26.999L28.5287 50.8697L29.7108 42.731H30.9902L29.1823 54H28.042L26.4705 45.6526L24.8852 54H23.6892ZM0 32.1377L2.39196 20.8686H3.9078L6.31367 32.1377H4.82565L4.3111 29.2995H2.01648L1.47412 32.1377H0ZM2.22508 28.1726H4.10249L3.15683 23.0946L2.22508 28.1726ZM50.5788 22.0373V32.1377H52.1503V22.0373H53.9999V20.8686H48.6736V22.0373H50.5788Z" fill="#1C1919"/>
</svg>
