<svg width="33" height="32" viewBox="0 0 33 32" fill="none" xmlns="http://www.w3.org/2000/svg">
<path fill-rule="evenodd" clip-rule="evenodd" d="M32.5 16C32.5 24.836 25.336 32 16.5 32C7.664 32 0.5 24.836 0.5 16C0.5 7.164 7.664 0 16.5 0C25.336 0 32.5 7.164 32.5 16ZM26.7507 14.744C27.0093 15.1133 27.156 15.5493 27.172 16C27.179 16.4409 27.061 16.8747 26.8316 17.2513C26.6022 17.6279 26.2709 17.9319 25.876 18.128C25.8947 18.3627 25.8947 18.5973 25.876 18.832C25.876 22.416 21.7 25.328 16.548 25.328C11.396 25.328 7.22 22.416 7.22 18.832C7.20199 18.5977 7.20199 18.3623 7.22 18.128C6.9149 17.9852 6.64434 17.778 6.42692 17.5207C6.2095 17.2633 6.05038 16.962 5.9605 16.6373C5.87062 16.3126 5.8521 15.9724 5.90623 15.6399C5.96035 15.3074 6.08583 14.9905 6.27405 14.7111C6.46226 14.4317 6.70874 14.1964 6.99655 14.0213C7.28435 13.8462 7.60666 13.7355 7.94131 13.6968C8.27596 13.6582 8.61502 13.6924 8.93518 13.7972C9.25534 13.902 9.54901 14.0749 9.796 14.304C11.6396 13.0536 13.8086 12.3696 16.036 12.336L17.22 6.784C17.2333 6.71973 17.2592 6.65873 17.2963 6.60455C17.3333 6.55036 17.3807 6.50407 17.4358 6.46835C17.4909 6.43264 17.5525 6.4082 17.617 6.39647C17.6816 6.38474 17.7479 6.38594 17.812 6.4L21.732 7.184C21.9234 6.8551 22.2258 6.6052 22.5849 6.47916C22.944 6.35313 23.3362 6.3592 23.6912 6.4963C24.0462 6.6334 24.3407 6.89254 24.5219 7.22721C24.7031 7.56188 24.759 7.95016 24.6797 8.32236C24.6004 8.69455 24.391 9.02629 24.0891 9.25802C23.7872 9.48975 23.4127 9.6063 23.0326 9.58675C22.6526 9.5672 22.2919 9.41282 22.0154 9.15133C21.7389 8.88985 21.5647 8.53837 21.524 8.16L18.1 7.44L17.06 12.432C19.2603 12.4792 21.3999 13.1627 23.22 14.4C23.463 14.1664 23.7537 13.9882 24.0721 13.8776C24.3905 13.767 24.729 13.7266 25.0645 13.7593C25.4 13.792 25.7244 13.8969 26.0155 14.0669C26.3065 14.2369 26.5574 14.4679 26.7507 14.744ZM11.4413 16.7107C11.3245 16.8854 11.2433 17.0815 11.2023 17.2876C11.1613 17.4937 11.1612 17.7059 11.2022 17.9121C11.285 18.3284 11.5298 18.6948 11.8827 18.9307C12.2356 19.1665 12.6677 19.2525 13.0841 19.1698C13.2902 19.1288 13.4863 19.0476 13.661 18.9309C13.8358 18.8141 13.9859 18.6641 14.1027 18.4893C14.3385 18.1364 14.4245 17.7043 14.3418 17.2879C14.259 16.8716 14.0142 16.5052 13.6613 16.2693C13.3084 16.0335 12.8763 15.9475 12.4599 16.0302C12.0436 16.113 11.6772 16.3578 11.4413 16.7107ZM16.516 23.232C17.936 23.2907 19.3333 22.92 20.468 22.064C20.5529 21.9813 20.6014 21.8682 20.6029 21.7497C20.6044 21.6311 20.5587 21.5169 20.476 21.432C20.435 21.39 20.3862 21.3564 20.3322 21.3333C20.2783 21.3101 20.2203 21.2979 20.1617 21.2971C20.0431 21.2956 19.9289 21.3413 19.844 21.424C18.873 22.1206 17.6933 22.4649 16.5 22.4C15.3082 22.4533 14.134 22.0976 13.172 21.392C13.0891 21.324 12.9839 21.2892 12.8767 21.2945C12.7696 21.2997 12.6683 21.3446 12.5925 21.4205C12.5166 21.4963 12.4717 21.5976 12.4665 21.7047C12.4612 21.8119 12.496 21.9171 12.564 22C13.6992 22.8554 15.0958 23.2908 16.516 23.232ZM19.2907 18.9947C19.5547 19.1707 19.848 19.328 20.164 19.328C20.381 19.3305 20.5963 19.2889 20.7966 19.2055C20.997 19.1222 21.1783 18.9989 21.3295 18.8432C21.4807 18.6875 21.5986 18.5027 21.6761 18.2999C21.7535 18.0972 21.7889 17.8808 21.78 17.664C21.7799 17.3876 21.7082 17.116 21.5719 16.8756C21.4356 16.6351 21.2394 16.4341 21.0023 16.2921C20.7652 16.15 20.4954 16.0718 20.2191 16.0651C19.9428 16.0583 19.6695 16.1233 19.4257 16.2535C19.182 16.3838 18.9762 16.575 18.8283 16.8085C18.6804 17.042 18.5955 17.3098 18.5819 17.5859C18.5683 17.8619 18.6265 18.1368 18.7507 18.3836C18.8749 18.6305 19.0609 18.841 19.2907 18.9947Z" fill="#1C1919"/>
</svg>
