<svg width="31" height="26" viewBox="0 0 31 26" fill="none" xmlns="http://www.w3.org/2000/svg">
<path d="M30.3572 3.58269C29.2439 4.07602 28.0479 4.40935 26.7905 4.56002C28.0879 3.78374 29.0584 2.56198 29.5212 1.12269C28.3023 1.84667 26.9683 2.35628 25.5772 2.62935C24.6417 1.63051 23.4026 0.968456 22.0523 0.745987C20.702 0.523517 19.316 0.753077 18.1095 1.39902C16.903 2.04497 15.9436 3.07117 15.3801 4.31829C14.8166 5.56542 14.6806 6.96369 14.9932 8.29602C12.5234 8.17202 10.1074 7.53009 7.90175 6.41189C5.69615 5.2937 3.75031 3.72424 2.19052 1.80535C1.65719 2.72535 1.35052 3.79202 1.35052 4.92802C1.34992 5.95068 1.60176 6.95768 2.08369 7.85966C2.56562 8.76165 3.26273 9.53074 4.11319 10.0987C3.12689 10.0673 2.16235 9.8008 1.29985 9.32135V9.40135C1.29975 10.8357 1.7959 12.2259 2.7041 13.336C3.6123 14.4462 4.87662 15.2079 6.28252 15.492C5.36756 15.7396 4.4083 15.7761 3.47719 15.5987C3.87385 16.8328 4.64651 17.9121 5.68701 18.6853C6.72751 19.4585 7.98374 19.8869 9.27985 19.9107C7.07963 21.6379 4.36237 22.5748 1.56519 22.5707C1.06969 22.5708 0.574621 22.5419 0.0825195 22.484C2.92182 24.3096 6.22697 25.2785 9.60252 25.2747C21.0292 25.2747 27.2759 15.8107 27.2759 7.60269C27.2759 7.33602 27.2692 7.06669 27.2572 6.80002C28.4722 5.92132 29.5211 4.83322 30.3545 3.58669L30.3572 3.58269Z" fill="#1C1919"/>
</svg>
