<svg width="30" height="30" viewBox="0 0 30 30" fill="none" xmlns="http://www.w3.org/2000/svg">
<path fill-rule="evenodd" clip-rule="evenodd" d="M9.12 0.421252C10.684 0.349252 11.1827 0.333252 15.1667 0.333252C19.1507 0.333252 19.6493 0.350585 21.212 0.421252C22.7747 0.491919 23.8413 0.741252 24.7747 1.10259C25.752 1.47192 26.6387 2.04925 27.372 2.79592C28.1187 3.52792 28.6947 4.41325 29.0627 5.39192C29.4253 6.32525 29.6733 7.39192 29.7453 8.95192C29.8173 10.5186 29.8333 11.0173 29.8333 14.9999C29.8333 18.9839 29.816 19.4826 29.7453 21.0466C29.6747 22.6066 29.4253 23.6733 29.0627 24.6066C28.6947 25.5854 28.1177 26.4722 27.372 27.2053C26.6387 27.9519 25.752 28.5279 24.7747 28.8959C23.8413 29.2586 22.7747 29.5066 21.2147 29.5786C19.6493 29.6506 19.1507 29.6666 15.1667 29.6666C11.1827 29.6666 10.684 29.6493 9.12 29.5786C7.56 29.5079 6.49333 29.2586 5.56 28.8959C4.58123 28.5279 3.69443 27.9509 2.96133 27.2053C2.21517 26.4728 1.63775 25.5864 1.26933 24.6079C0.908 23.6746 0.66 22.6079 0.588 21.0479C0.516 19.4813 0.5 18.9826 0.5 14.9999C0.5 11.0159 0.517333 10.5173 0.588 8.95459C0.658667 7.39192 0.908 6.32525 1.26933 5.39192C1.6383 4.41336 2.21616 3.527 2.96267 2.79459C3.69472 2.04859 4.58063 1.47118 5.55867 1.10259C6.492 0.741252 7.55867 0.493252 9.11867 0.421252H9.12ZM21.0933 3.06125C19.5467 2.99059 19.0827 2.97592 15.1667 2.97592C11.2507 2.97592 10.7867 2.99059 9.24 3.06125C7.80933 3.12659 7.03333 3.36525 6.516 3.56659C5.832 3.83325 5.34267 4.14925 4.82933 4.66259C4.34273 5.13599 3.96824 5.7123 3.73333 6.34925C3.532 6.86659 3.29333 7.64259 3.228 9.07325C3.15733 10.6199 3.14267 11.0839 3.14267 14.9999C3.14267 18.9159 3.15733 19.3799 3.228 20.9266C3.29333 22.3573 3.532 23.1333 3.73333 23.6506C3.968 24.2866 4.34267 24.8639 4.82933 25.3373C5.30267 25.8239 5.88 26.1986 6.516 26.4333C7.03333 26.6346 7.80933 26.8733 9.24 26.9386C10.7867 27.0093 11.2493 27.0239 15.1667 27.0239C19.084 27.0239 19.5467 27.0093 21.0933 26.9386C22.524 26.8733 23.3 26.6346 23.8173 26.4333C24.5013 26.1666 24.9907 25.8506 25.504 25.3373C25.9907 24.8639 26.3653 24.2866 26.6 23.6506C26.8013 23.1333 27.04 22.3573 27.1053 20.9266C27.176 19.3799 27.1907 18.9159 27.1907 14.9999C27.1907 11.0839 27.176 10.6199 27.1053 9.07325C27.04 7.64259 26.8013 6.86659 26.6 6.34925C26.3333 5.66525 26.0173 5.17592 25.504 4.66259C25.0306 4.17601 24.4543 3.80153 23.8173 3.56659C23.3 3.36525 22.524 3.12659 21.0933 3.06125ZM13.2933 19.5213C14.3395 19.9568 15.5045 20.0155 16.5892 19.6875C17.674 19.3596 18.6112 18.6651 19.2408 17.7229C19.8704 16.7807 20.1534 15.6491 20.0414 14.5214C19.9294 13.3937 19.4293 12.3399 18.6267 11.5399C18.115 11.0286 17.4963 10.637 16.8151 10.3934C16.1339 10.1499 15.4072 10.0604 14.6873 10.1314C13.9674 10.2024 13.2722 10.4322 12.6517 10.8041C12.0313 11.176 11.501 11.6809 11.0991 12.2824C10.6971 12.8839 10.4336 13.567 10.3274 14.2825C10.2211 14.9981 10.2749 15.7283 10.4847 16.4206C10.6946 17.1129 11.0553 17.7501 11.541 18.2862C12.0266 18.8224 12.6251 19.2442 13.2933 19.5213ZM9.836 9.66925C10.536 8.96922 11.3671 8.41392 12.2817 8.03507C13.1964 7.65621 14.1767 7.46122 15.1667 7.46122C16.1567 7.46122 17.137 7.65621 18.0516 8.03507C18.9662 8.41392 19.7973 8.96922 20.4973 9.66925C21.1974 10.3693 21.7527 11.2003 22.1315 12.115C22.5104 13.0296 22.7054 14.0099 22.7054 14.9999C22.7054 15.9899 22.5104 16.9702 22.1315 17.8849C21.7527 18.7995 21.1974 19.6306 20.4973 20.3306C19.0836 21.7444 17.1661 22.5386 15.1667 22.5386C13.1673 22.5386 11.2498 21.7444 9.836 20.3306C8.42222 18.9168 7.62797 16.9993 7.62797 14.9999C7.62797 13.0005 8.42222 11.083 9.836 9.66925ZM24.3773 8.58392C24.5508 8.42028 24.6897 8.22349 24.7857 8.00522C24.8818 7.78694 24.9331 7.55161 24.9366 7.31316C24.94 7.07471 24.8956 6.83798 24.806 6.617C24.7163 6.39602 24.5832 6.19527 24.4146 6.02664C24.246 5.85801 24.0452 5.72493 23.8243 5.63528C23.6033 5.54562 23.3665 5.50122 23.1281 5.5047C22.8896 5.50817 22.6543 5.55946 22.436 5.65551C22.2178 5.75157 22.021 5.89045 21.8573 6.06392C21.5391 6.40129 21.3648 6.84941 21.3716 7.31316C21.3784 7.7769 21.5656 8.21976 21.8935 8.54771C22.2215 8.87566 22.6643 9.06289 23.1281 9.06965C23.5918 9.07641 24.04 8.90217 24.3773 8.58392Z" fill="#1C1919"/>
</svg>
